<?xml version="1.0" encoding="utf-8"?>
<!-- Generator: Adobe Illustrator 24.1.0, SVG Export Plug-In . SVG Version: 6.00 Build 0)  -->
<svg version="1.1" id="LOGOS" xmlns="http://www.w3.org/2000/svg" xmlns:xlink="http://www.w3.org/1999/xlink" x="0px" y="0px"
	 viewBox="0 0 297 132" style="enable-background:new 0 0 297 132;" xml:space="preserve">
<style type="text/css">
	.st0{fill-rule:evenodd;clip-rule:evenodd;fill:#00ACFF;}
	.st1{fill:#0086D0;}
</style>
<path d="M117.6,44.7v-5.6h-5.2v5.7h-2.6V31.1h2.6v5.7h5.2v-5.7h2.6v13.6H117.6z M129.9,44.7h-2.1l-0.2-0.7c-0.9,0.6-1.9,0.9-3,0.9
	c-1.9,0-2.7-1.2-2.7-2.9c0-2,0.9-2.8,3-2.8h2.4v-1c0-1.1-0.3-1.5-1.9-1.5c-1,0-1.9,0.1-2.8,0.3l-0.3-1.9c1.1-0.3,2.3-0.5,3.5-0.5
	c3.2,0,4.2,1.1,4.2,3.5L129.9,44.7z M127.3,41h-1.9c-0.8,0-1.1,0.2-1.1,1s0.2,1,1,1c0.7,0,1.3-0.2,1.9-0.5L127.3,41z M135.2,44.9
	c-1.2,0-2.4-0.2-3.5-0.6l0.4-1.9c1,0.3,2,0.4,3,0.4c1.1,0,1.3-0.2,1.3-1c0-0.6-0.1-0.9-1.8-1.3c-2.5-0.6-2.8-1.2-2.8-3.1
	c0-1.9,0.9-2.8,3.8-2.8c1,0,2.1,0.1,3.1,0.3l-0.2,2c-0.9-0.2-1.9-0.3-2.8-0.3c-1.1,0-1.3,0.2-1.3,0.8c0,0.8,0.1,0.8,1.4,1.2
	c2.9,0.7,3.1,1.1,3.1,3.1S138.3,44.9,135.2,44.9L135.2,44.9z M146.9,44.7v-6.8c0-0.5-0.2-0.8-0.8-0.8c-0.9,0.1-1.8,0.4-2.7,0.8v6.8
	h-2.5V30.9l2.6,0.4v4.3c1.2-0.6,2.4-0.9,3.7-1c1.7,0,2.3,1.2,2.3,2.9v7.1L146.9,44.7z M151.6,33.5v-2.4h2.6v2.4L151.6,33.5z
	 M151.6,44.7v-9.8h2.6v9.8H151.6z M156.2,35c0-2.5,1.5-3.9,5-3.9c1.3,0,2.6,0.1,3.8,0.4l-0.3,2.2c-1.1-0.2-2.3-0.3-3.4-0.3
	c-1.8,0-2.4,0.6-2.4,2v5.2c0,1.4,0.6,2,2.4,2c1.1,0,2.3-0.1,3.4-0.3l0.3,2.2c-1.2,0.3-2.5,0.4-3.8,0.4c-3.5,0-5-1.4-5-3.9V35z
	 M170.6,44.9c-3.5,0-4.4-1.8-4.4-3.9v-2.5c0-2,0.9-3.9,4.4-3.9s4.4,1.8,4.4,3.9V41C175.1,43.1,174.1,44.9,170.6,44.9L170.6,44.9z
	 M170.6,36.8c-1.4,0-1.9,0.6-1.9,1.7v2.6c0,1.1,0.5,1.7,1.9,1.7s1.9-0.6,1.9-1.7v-2.6C172.5,37.4,172,36.8,170.6,36.8L170.6,36.8z
	 M182.3,37c-0.9,0.4-1.8,0.9-2.7,1.4v6.3H177v-9.8h2.1l0.2,1.1c0.8-0.5,1.7-1,2.7-1.3L182.3,37z M192.5,41.4c0,2.2-1,3.5-3.4,3.5
	c-0.9,0-1.8-0.1-2.7-0.3v4l-2.6,0.4V34.9h2l0.3,0.8c0.9-0.7,2.1-1,3.2-1c2.1,0,3.1,1.2,3.1,3.4L192.5,41.4z M186.4,42.6
	c0.7,0.2,1.5,0.2,2.3,0.3c0.9,0,1.3-0.4,1.3-1.3V38c0-0.8-0.3-1.2-1.3-1.2c-0.8,0-1.6,0.3-2.3,0.9V42.6z"/>
<polygon class="st0" points="30,43.8 55.6,58.6 55.6,113.1 30,98.3 "/>
<path class="st1" d="M68.2,50.2l-27.8-16v11.1l18.9,10.9v33.3l8.9,5.1c5.5,3.2,10,1.3,10-4.2V66C78.2,60.5,73.7,53.4,68.2,50.2z"/>
<path d="M109.7,54.6h15.7c9.3,0,12.8,3.8,12.8,10.9V71c0,7-3.8,10.8-13.1,10.8h-7.7v13h-7.6V54.6z M125,61.3h-7.7v13.8h7.7
	c4.3,0,5.6-1.6,5.6-4.9v-4.1C130.6,62.8,129.2,61.3,125,61.3z"/>
<path d="M164,94.9h-6l-0.5-2c-2.6,1.7-5.7,2.6-8.8,2.6c-5.4,0-7.7-3.7-7.7-8.8c0-6,2.6-8.3,8.6-8.3h7.1v-3.1c0-3.3-0.9-4.4-5.6-4.4
	c-2.7,0-5.5,0.3-8.2,0.9l-0.9-5.6c3.3-0.9,6.6-1.4,10-1.4c9.3,0,12,3.3,12,10.7V94.9z M156.6,83.8h-5.4c-2.4,0-3.1,0.7-3.1,2.9
	c0,2,0.7,3,3,3c2,0,3.9-0.6,5.6-1.5L156.6,83.8z"/>
<path d="M168.4,84.2v-8.1c0-7.9,3.4-11.3,12.7-11.3c2.4,0,4.9,0.4,7.2,1.1l-0.9,6c-2-0.5-4-0.8-6.1-0.8c-4.2,0-5.5,1.3-5.5,4.9v8.2
	c0,3.6,1.3,4.9,5.5,4.9c2.1,0,4.1-0.3,6.1-0.8l0.9,6.1c-2.3,0.7-4.8,1.1-7.2,1.1C171.8,95.5,168.4,92.1,168.4,84.2z"/>
<path d="M193,94.9V53.4l7.4-1v42.5H193z M218,65.4L209.3,80l9,14.9h-8.1L201.4,80l8.4-14.6L218,65.4z"/>
<path d="M233.3,89.4c3.1,0,6.1-0.5,9-1.4l1.1,5.6c-3.5,1.3-7.1,1.9-10.8,1.9c-9.3,0-12.5-4.3-12.5-11.4v-7.8
	c0-6.2,2.8-11.5,12.2-11.5S244,70.3,244,76.7V83h-16.4v1.5C227.6,88.1,228.9,89.4,233.3,89.4z M227.6,77h9.4v-1.4
	c0-2.8-0.9-4.7-4.5-4.7s-4.9,1.9-4.9,4.7L227.6,77z"/>
<path d="M263.7,71.6c-2.7,1.2-5.3,2.7-7.8,4.3v19h-7.4V65.4h6.2l0.5,3.3c2.4-1.6,5-2.9,7.8-3.9L263.7,71.6z"/>
</svg>
